# xmcd
#
# Track frame offsets:
#   150
#   15375
#   31727
#   46275
#   60825
#   77700
#   90975
#   106875
#   120972
#   138072
#   157572
#   173102
#
# Disc length: 2475 seconds
#
# Revision: 0
# Processed by: cddbd v1.5.2PL0 Copyright (c) Steve Scherf et al.
# Submitted via: uFREEDB 1.6.0
#
DISCID=6e09a90c
DTITLE=Various Artist - CDX Vol. 8
DYEAR=1991
DGENRE=Country
TTITLE0=Do Me A Favor, Don't - Jo-El Sonnier
TTITLE1=Gotta Get Serious - J. P. Pennington
TTITLE2=Let's Talk Dirty - Wild Jimbos
TTITLE3=Long Gone - The Goldens - 
TTITLE4=My Ex-Wife - Mel McDaniel
TTITLE5=One Shot At A Time - Clinton Gregory
TTITLE6=She Can - The Marcy Brothers
TTITLE7=Speak Of The Devil - Pirates Of THe Missisippi
TTITLE8=The Walk - Sawyer Brown
TTITLE9=This Cowboy's Hat - Chris LaDoux
TTITLE10=Twang Factor -Charlie Daniels
TTITLE11=Your Love Is A Miracle - Mark Chestnut
EXTD=
EXTT0=
EXTT1=
EXTT2=
EXTT3=
EXTT4=
EXTT5=
EXTT6=
EXTT7=
EXTT8=
EXTT9=
EXTT10=
EXTT11=
PLAYORDER=
